Coordinates
version=1
nRows=9
nColumns=36
inDegrees=yes

Units are S.I. units (second, meters, Newtons, ...)
If the header above contains a line with 'inDegrees', this indicates whether rotational values are in degrees (yes) or radians (no).

endheader
time	pelvis_tilt	pelvis_list	pelvis_rotation	pelvis_tx	pelvis_ty	pelvis_tz	hip_flexion_r	hip_adduction_r	hip_rotation_r	knee_angle_r	knee_angle_r_beta	ankle_angle_r	subtalar_angle_r	mtp_angle_r	hip_flexion_l	hip_adduction_l	hip_rotation_l	knee_angle_l	knee_angle_l_beta	ankle_angle_l	subtalar_angle_l	mtp_angle_l	lumbar_extension	lumbar_bending	lumbar_rotation	arm_flex_r	arm_add_r	arm_rot_r	elbow_flex_r	pro_sup_r	arm_flex_l	arm_add_l	arm_rot_l	elbow_flex_l	pro_sup_l
      3.83333330	     -7.69834581	      1.78133405	      0.67271956	      1.47957051	      1.00147479	     -0.00670079	     25.84849121	    -10.07997232	    -13.69790262	     34.97354423	      0.61040350	      9.72600666	    -12.54540294	     -7.49999987	     20.10518993	     -6.76234368	     -7.93143673	     27.51747648	      0.48027057	     13.10057341	     -9.35850210	     -7.49999987	     -2.72760127	      0.03297750	     -0.94076660	      4.23957381	    -18.62906335	     24.72741313	     24.87035288	     83.51492696	     -4.28565280	    -19.25239838	     33.34878754	     27.21651526	     76.93513350
      3.85000000	     -8.04759220	      2.10032766	      1.09604645	      1.47743028	      0.99842443	     -0.00201352	     28.17301894	    -11.21268221	    -14.32748728	     39.38946667	      0.68747588	     13.73156920	    -11.86548730	     -7.49999987	     22.93931960	     -6.81807614	     -7.91554415	     32.54871487	      0.56808224	     16.23359523	    -10.14229732	     -7.49999987	     -2.71541295	     -0.39403240	     -1.04494894	      4.57207996	    -17.75303311	     23.99896850	     23.80441900	     83.77461552	     -3.18082254	    -18.52435042	     32.92531040	     25.91274231	     77.25467151
      3.86666670	     -8.35860927	      2.27321091	      1.46031195	      1.48055998	      0.99428353	     -0.00106412	     29.84351169	    -12.06691857	    -14.97879600	     42.69471496	      0.74516335	     17.29054623	    -10.69016705	     -7.49999987	     24.96773405	     -7.01594981	     -8.14350434	     36.32698016	      0.63402541	     18.63366706	    -10.32036729	     -7.49999987	     -2.35215623	     -0.66041207	     -1.16101005	      4.65456046	    -17.02934328	     23.13697047	     22.74943677	     84.18402740	     -2.38865345	    -17.92445998	     32.60323565	     24.68924239	     77.71740134
      3.88333330	     -8.54321178	      2.24079160	      1.81012202	      1.48316845	      0.99636678	      0.00166350	     30.59545518	    -12.48712259	    -15.64182310	     44.62861725	      0.77891631	     20.18651913	     -9.61695541	     -7.49999987	     26.33052050	     -7.40903957	     -8.31591059	     39.09823986	      0.68239302	     20.45492929	    -10.15661136	     -7.49999987	     -1.93648514	     -0.69499120	     -0.96982645	      4.02076340	    -16.10415450	     17.77934520	     22.14542657	     90.54991867	     -1.66763813	    -17.36912807	     31.47279593	     23.43956239	     82.81918950
      3.90000000	     -8.43421802	      2.04600893	      2.16768831	      1.48239952	      1.01045329	      0.00634612	     30.21597181	    -12.47477425	    -16.39464105	     45.09184075	      0.78700109	     22.15947269	     -8.59204853	     -7.49999987	     26.49404884	     -7.91151905	     -8.60469623	     40.15908261	      0.70090822	     21.55723889	     -9.45890619	     -7.49999987	     -1.46611217	     -0.59009523	     -1.37354920	      3.99408854	    -15.65987391	     17.76795140	     21.20882627	     90.56715179	     -1.30076664	    -17.11341143	     31.21821899	     22.58873105	     82.59921257
      3.91666670	     -8.19209376	      1.94990815	      2.37277097	      1.48632115	      1.01800212	     -0.00141196	     29.22134968	    -12.43530511	    -17.01168947	     44.62956525	      0.77893286	     23.17929080	     -8.01236316	     -7.49999987	     25.71384578	     -8.10804416	     -9.01396672	     39.85832286	      0.69565897	     21.90969072	     -8.74899784	     -7.49999987	     -0.89928331	     -0.39341312	     -1.59418644	      3.80368343	    -15.55014854	     17.75009434	     20.51581727	     91.67244814	     -1.20692808	    -16.88508889	     32.01639148	     21.91213668	     83.13169642
      3.93333330	     -8.20374848	      1.81801577	      2.62822691	      1.47795217	      1.02497434	      0.00284631	     28.33160166	    -12.15934505	    -17.31437690	     43.67694717	      0.76230654	     23.57038797	     -7.91043250	     -7.49999987	     24.97625306	     -8.23390885	     -9.43100878	     38.78779981	      0.67697482	     21.59771331	     -8.19020715	     -7.49999987	      0.07400431	     -0.27393751	     -1.86911804	      3.59808099	    -15.41486943	     17.73035666	     19.87716199	     92.16703749	     -1.15481467	    -16.74411785	     32.06321658	     21.29295539	     83.45070524
      3.95000000	     -8.21893825	      1.56255988	      2.87151399	      1.46080896	      1.03194042	      0.00331843	     27.73040826	    -11.67349183	    -17.38580484	     42.75113463	      0.74614806	     23.47539447	     -8.11175116	     -7.49999987	     24.74334814	     -8.56604494	     -9.87230664	     38.00704364	      0.66334805	     21.51222646	     -7.24403202	     -7.49999987	      0.24456843	      0.14699062	     -2.13646442	      3.84387974	    -15.51969524	     17.61754728	     19.80404352	     92.07404074	     -0.69748119	    -16.75094826	     32.21813000	     21.09258041	     83.34454581
      3.96666670	     -8.51921667	      1.56782792	      2.99754451	      1.45724933	      1.03791389	      0.00118606	     27.56215839	    -11.48335228	    -17.34186731	     41.87086627	      0.73078448	     22.91886788	     -8.31975596	     -7.49999987	     24.53317154	     -8.46732776	    -10.47317958	     36.64369962	      0.63955321	     21.02020938	     -6.83299915	     -7.49999987	      0.86569192	      0.21384957	     -2.28603017	      3.93956028	    -15.56720045	     17.57891392	     19.99659150	     92.08228648	     -0.49363574	    -16.84344625	     32.24456151	     21.21813068	     83.33252458
